<?xml version="1.0" encoding="utf-8"?>
<!-- Generator: Adobe Illustrator 27.5.0, SVG Export Plug-In . SVG Version: 6.00 Build 0)  -->
<svg version="1.1" xmlns="http://www.w3.org/2000/svg" xmlns:xlink="http://www.w3.org/1999/xlink" x="0px" y="0px"
	 viewBox="0 0 500 500" style="enable-background:new 0 0 500 500;" xml:space="preserve">
<g id="BACKGROUND">
	<rect style="fill:#FFFFFF;" width="500" height="500"/>
	<g>
		<path style="fill:#D5F2F9;" d="M265.232,467.121c-155.924,0-201.17-19.344-222.749-131.111
			C20.905,224.245,43.876,48.714,212.33,42.982s212.307,55.167,238.063,146.872C476.147,281.561,531.138,467.121,265.232,467.121z"
			/>
		<path style="fill:#D5F2F9;" d="M459.424,185.81c1.27,2.301,3.095,4.629,5.688,5.057c2.42,0.399,4.857-1.058,6.27-3.063
			c1.413-2.005,1.987-4.472,2.405-6.889c1.535-8.87,1.366-18.031-0.495-26.838c-0.612-2.896-1.421-5.792-2.913-8.349
			c-2.7-4.626-7.368-7.723-12.03-10.362c-3.411-1.931-7.597-3.73-11.096-1.964c-2.336,1.179-3.725,3.751-4.099,6.341
			c-0.374,2.59,0.124,5.222,0.724,7.769C446.896,160.303,453.105,174.365,459.424,185.81z"/>
		<path style="fill:#D5F2F9;" d="M411.272,77.899c-2.904,0.405-5.163,2.533-5.267,7.101c-0.073,3.204,1.532,6.264,3.724,8.602
			c2.543,2.713,6.48,4.688,9.955,3.363c3.115-1.188,4.834-4.752,4.754-8.086C424.281,82.338,416.665,77.146,411.272,77.899z"/>
		<path style="fill:#D5F2F9;" d="M73.302,101.829c-4.5,4.292-9.391,7.125-14.56,5.457c-10.928-3.526,0.406-21.454,4.663-26.891
			c6.378-8.146,14.826-15.345,25.004-17.199c2.334-0.425,4.878-0.527,6.938,0.65c9.193,5.251-1.081,16.132-5.829,19.788
			C85.071,87.057,79.565,95.856,73.302,101.829z"/>
	</g>
</g>
<g id="OBJECTS">
	<g>
		<path style="fill:#FFFFFF;" d="M30.228,178.088h62.128c2.208-1.867,1.258-8.518-0.96-10.373c-2.218-1.855-6.053-1.178-7.501,1.325
			c0.28-2.328-1.29-4.744-3.532-5.435c-2.241-0.69-4.898,0.424-5.977,2.505c2.991-5.77-2.774-11.685-7.896-13.885
			c-9.819-4.217-15.924,1.682-17.206,11.229c-1.333-2.667-5.219-3.347-7.743-1.76c-2.524,1.587-3.663,4.825-3.384,7.793
			c-0.703-1.42-2.759-1.944-4.056-1.034c-1.297,0.91-1.504,3.022-0.408,4.166c-1.2-1.318-3.527-1.361-4.775-0.089
			C27.67,173.801,28.888,176.913,30.228,178.088z"/>
		<path style="fill:#FFFFFF;" d="M373.331,128.741h62.128c2.208-1.867,1.258-8.518-0.96-10.373
			c-2.218-1.855-6.053-1.178-7.501,1.325c0.28-2.328-1.29-4.744-3.532-5.435c-2.241-0.69-4.898,0.424-5.977,2.505
			c2.991-5.77-2.774-11.685-7.896-13.885c-9.819-4.217-15.924,1.682-17.206,11.229c-1.333-2.667-5.219-3.347-7.743-1.76
			c-2.524,1.587-3.663,4.824-3.384,7.793c-0.703-1.42-2.759-1.944-4.056-1.034c-1.297,0.91-1.504,3.022-0.408,4.166
			c-1.2-1.318-3.527-1.361-4.775-0.089C370.774,124.454,371.991,127.566,373.331,128.741z"/>
		<path style="fill:#FFFFFF;" d="M58.916,290.71h46.502c1.652-1.397,0.942-6.376-0.718-7.764c-1.66-1.389-4.531-0.882-5.614,0.992
			c0.209-1.743-0.966-3.551-2.644-4.068c-1.677-0.517-3.666,0.317-4.474,1.875c2.238-4.319-2.077-8.746-5.91-10.392
			c-7.349-3.157-11.919,1.259-12.878,8.404c-0.998-1.996-3.907-2.505-5.795-1.317c-1.889,1.188-2.742,3.611-2.533,5.833
			c-0.526-1.063-2.065-1.455-3.036-0.774c-0.971,0.681-1.125,2.262-0.305,3.118c-0.898-0.986-2.64-1.019-3.574-0.067
			C57.002,287.501,57.913,289.83,58.916,290.71z"/>
		<path style="fill:#FFFFFF;" d="M179.355,82.881h43.452c1.544-1.306,0.88-5.957-0.671-7.255c-1.551-1.298-4.233-0.824-5.246,0.926
			c0.196-1.629-0.903-3.318-2.47-3.801c-1.567-0.483-3.426,0.296-4.18,1.752c2.092-4.035-1.94-8.172-5.522-9.711
			c-6.867-2.95-11.137,1.177-12.034,7.853c-0.932-1.865-3.65-2.341-5.415-1.231c-1.765,1.11-2.562,3.374-2.367,5.45
			c-0.491-0.993-1.93-1.36-2.837-0.723c-0.907,0.636-1.052,2.113-0.285,2.914c-0.839-0.922-2.467-0.952-3.34-0.062
			C177.566,79.883,178.418,82.06,179.355,82.881z"/>
		<path style="fill:#FFFFFF;" d="M398.363,270.352h54.558c1.939-1.639,1.105-7.48-0.843-9.109c-1.947-1.629-5.315-1.034-6.587,1.163
			c0.245-2.045-1.133-4.166-3.102-4.772c-1.968-0.606-4.301,0.372-5.249,2.2c2.626-5.067-2.436-10.261-6.934-12.193
			c-8.622-3.703-13.984,1.477-15.109,9.861c-1.17-2.342-4.583-2.939-6.799-1.545c-2.216,1.394-3.217,4.237-2.971,6.843
			c-0.617-1.247-2.423-1.707-3.562-0.908c-1.139,0.799-1.321,2.654-0.358,3.658c-1.054-1.157-3.097-1.195-4.193-0.078
			C396.117,266.588,397.186,269.32,398.363,270.352z"/>
	</g>
	<g>
		<path style="fill:#FFCE5E;" d="M362.41,145.018l1.311,3.195c0.064,0.157,0.189,0.281,0.346,0.346l3.195,1.311
			c0.524,0.215,0.524,0.957,0,1.172l-3.195,1.311c-0.157,0.064-0.281,0.189-0.346,0.346l-1.311,3.195
			c-0.215,0.524-0.957,0.524-1.172,0l-1.311-3.195c-0.064-0.157-0.189-0.281-0.346-0.346l-3.195-1.311
			c-0.524-0.215-0.524-0.957,0-1.172l3.195-1.311c0.157-0.064,0.281-0.189,0.346-0.346l1.311-3.195
			C361.453,144.494,362.195,144.494,362.41,145.018z"/>
		<path style="fill:#FFCE5E;" d="M450.369,346.114l1.311,3.195c0.064,0.157,0.189,0.281,0.346,0.346l3.195,1.311
			c0.524,0.215,0.524,0.957,0,1.172l-3.195,1.311c-0.157,0.064-0.281,0.189-0.346,0.346l-1.311,3.195
			c-0.215,0.524-0.957,0.524-1.173,0l-1.311-3.195c-0.064-0.157-0.189-0.281-0.346-0.346l-3.195-1.311
			c-0.524-0.215-0.524-0.957,0-1.172l3.195-1.311c0.157-0.064,0.281-0.189,0.346-0.346l1.311-3.195
			C449.412,345.59,450.154,345.59,450.369,346.114z"/>
		<path style="fill:#FFCE5E;" d="M100.083,212.288l1.311,3.195c0.064,0.157,0.189,0.281,0.346,0.346l3.195,1.311
			c0.524,0.215,0.524,0.957,0,1.172l-3.195,1.311c-0.157,0.064-0.281,0.189-0.346,0.346l-1.311,3.195
			c-0.215,0.524-0.957,0.524-1.172,0l-1.312-3.195c-0.064-0.157-0.189-0.281-0.345-0.346l-3.195-1.311
			c-0.524-0.215-0.524-0.957,0-1.172l3.195-1.311c0.157-0.064,0.281-0.189,0.345-0.346l1.312-3.195
			C99.126,211.764,99.868,211.764,100.083,212.288z"/>
		<path style="fill:#FFCE5E;" d="M234.936,147.523l1.311,3.195c0.064,0.157,0.189,0.281,0.346,0.346l3.195,1.311
			c0.524,0.215,0.524,0.957,0,1.172l-3.195,1.311c-0.157,0.064-0.281,0.189-0.346,0.346l-1.311,3.195
			c-0.215,0.524-0.957,0.524-1.172,0l-1.312-3.195c-0.064-0.157-0.189-0.281-0.346-0.346l-3.195-1.311
			c-0.524-0.215-0.524-0.957,0-1.172l3.195-1.311c0.157-0.064,0.281-0.189,0.346-0.346l1.312-3.195
			C233.979,146.999,234.721,146.999,234.936,147.523z"/>
		<path style="fill:#FFCE5E;" d="M372.859,158.641l0.654,1.594c0.032,0.078,0.094,0.14,0.172,0.172l1.594,0.654
			c0.261,0.107,0.261,0.478,0,0.585l-1.594,0.654c-0.078,0.032-0.14,0.094-0.172,0.172l-0.654,1.594
			c-0.107,0.261-0.478,0.261-0.585,0l-0.654-1.594c-0.032-0.078-0.094-0.14-0.172-0.172l-1.594-0.654
			c-0.261-0.107-0.261-0.478,0-0.585l1.594-0.654c0.078-0.032,0.14-0.094,0.172-0.172l0.654-1.594
			C372.382,158.38,372.752,158.38,372.859,158.641z"/>
		<path style="fill:#FFCE5E;" d="M145.443,80.011l0.654,1.594c0.032,0.078,0.094,0.14,0.172,0.172l1.594,0.654
			c0.261,0.107,0.261,0.478,0,0.585l-1.594,0.654c-0.078,0.032-0.14,0.094-0.172,0.172l-0.654,1.594
			c-0.107,0.261-0.478,0.261-0.585,0l-0.654-1.594c-0.032-0.078-0.094-0.14-0.172-0.172l-1.594-0.654
			c-0.261-0.107-0.261-0.478,0-0.585l1.594-0.654c0.078-0.032,0.14-0.094,0.172-0.172l0.654-1.594
			C144.966,79.75,145.336,79.75,145.443,80.011z"/>
		<path style="fill:#FFCE5E;" d="M105.682,202.333l0.654,1.594c0.032,0.078,0.094,0.14,0.172,0.172l1.594,0.654
			c0.261,0.107,0.261,0.478,0,0.585l-1.594,0.654c-0.078,0.032-0.14,0.094-0.172,0.172l-0.654,1.594
			c-0.107,0.261-0.478,0.261-0.585,0l-0.654-1.594c-0.032-0.078-0.094-0.14-0.172-0.172l-1.594-0.654
			c-0.261-0.107-0.261-0.478,0-0.585l1.594-0.654c0.078-0.032,0.14-0.094,0.172-0.172l0.654-1.594
			C105.205,202.072,105.575,202.072,105.682,202.333z"/>
		<path style="fill:#FFCE5E;" d="M416.693,298.284l0.654,1.594c0.032,0.078,0.094,0.14,0.172,0.172l1.594,0.654
			c0.261,0.107,0.261,0.478,0,0.585l-1.594,0.654c-0.078,0.032-0.14,0.094-0.172,0.172l-0.654,1.594
			c-0.107,0.262-0.478,0.262-0.585,0l-0.654-1.594c-0.032-0.078-0.094-0.14-0.172-0.172l-1.594-0.654
			c-0.261-0.107-0.261-0.478,0-0.585l1.594-0.654c0.078-0.032,0.14-0.094,0.172-0.172l0.654-1.594
			C416.216,298.023,416.586,298.023,416.693,298.284z"/>
		<path style="fill:#FFCE5E;" d="M62.46,333.409l0.654,1.594c0.032,0.078,0.094,0.14,0.172,0.172l1.594,0.654
			c0.261,0.107,0.261,0.478,0,0.585l-1.594,0.654c-0.078,0.032-0.14,0.094-0.172,0.172l-0.654,1.594
			c-0.107,0.261-0.478,0.261-0.585,0l-0.654-1.594c-0.032-0.078-0.094-0.14-0.172-0.172l-1.594-0.654
			c-0.261-0.107-0.261-0.478,0-0.585l1.594-0.654c0.078-0.032,0.14-0.094,0.172-0.172l0.654-1.594
			C61.982,333.148,62.353,333.148,62.46,333.409z"/>
	</g>
	<g>
		<path style="fill:#9DC9DD;" d="M463.028,375.317H52.381c25.437,77.181,77.348,91.804,212.851,91.804
			C388.505,467.121,442.804,427.239,463.028,375.317z"/>
		<ellipse style="fill:#74A7CB;" cx="290.618" cy="439.29" rx="55.369" ry="15.348"/>
	</g>
	<g>
		<g>
			<path style="fill:#83BAA8;" d="M383.48,351.576c4.227-13.003,12.235-26.394,25.424-29.998c4.607-1.259,9.912-1.066,13.694,1.849
				c4.938,3.806,5.814,11.212,3.74,17.092c-2.073,5.88-6.458,10.602-10.707,15.166c-6.11,6.564-12.175,13.179-17.833,20.137
				c-5.704,7.014-11.138,14.708-12.745,23.604c-0.25,1.38-0.415,2.813-1.089,4.044c-0.673,1.23-2.022,2.223-3.403,1.983
				c-3.965-0.688-2.619-21.585-2.428-25.099C378.665,370.584,380.455,360.882,383.48,351.576z"/>
			<path style="fill:#4D867E;" d="M418.328,323.254c-5.125,3.301-9.587,7.85-13.346,12.62c-4.138,5.251-7.237,11.127-10.264,17.061
				c-5.52,10.821-11.002,21.987-13.629,33.921c-0.715,3.246-1.188,6.549-1.362,9.87c-0.176,3.358-0.136,6.825,0.832,10.071
				c0.096,0.322,0.631,0.357,0.638-0.035c0.053-2.899-0.121-5.799,0.006-8.699c0.127-2.899,0.492-5.786,1.044-8.635
				c1.133-5.848,3.006-11.521,5.252-17.03c2.292-5.624,5.021-11.052,7.758-16.469c2.888-5.716,5.736-11.502,9.493-16.711
				c2.005-2.78,4.258-5.38,6.702-7.783c2.468-2.426,5.168-4.537,7.876-6.682C420.12,324.126,419.204,322.69,418.328,323.254z"/>
		</g>
		<g>
			<path style="fill:#4D867E;" d="M405.585,371.875c9.256-6.553,21.22-11.488,31.778-7.348c3.688,1.446,7.12,4.204,8.191,8.018
				c1.397,4.979-1.691,10.338-5.984,13.221c-4.294,2.883-9.551,3.85-14.638,4.779c-7.317,1.337-14.63,2.73-21.841,4.553
				c-7.27,1.838-14.697,4.261-20.176,9.381c-0.85,0.794-1.671,1.665-2.729,2.149c-1.057,0.484-2.447,0.476-3.246-0.368
				c-2.296-2.423,8.958-15.653,10.827-17.896C392.96,382.13,398.96,376.565,405.585,371.875z"/>
			<path style="fill:#83BAA8;" d="M442.799,370.313c-5.045-0.345-10.267,0.469-15.131,1.777c-5.355,1.441-10.329,3.813-15.284,6.259
				c-9.035,4.46-18.216,9.169-25.878,15.804c-2.084,1.805-4.037,3.767-5.798,5.889c-1.781,2.146-3.474,4.471-4.439,7.111
				c-0.096,0.262,0.243,0.55,0.442,0.293c1.472-1.902,2.794-3.916,4.316-5.782c1.521-1.866,3.195-3.604,4.974-5.225
				c3.652-3.327,7.71-6.172,11.934-8.723c4.313-2.604,8.818-4.861,13.323-7.107c4.754-2.37,9.516-4.806,14.597-6.408
				c2.712-0.855,5.499-1.467,8.315-1.854c2.844-0.39,5.686-0.456,8.55-0.54C443.558,371.782,443.661,370.372,442.799,370.313z"/>
		</g>
	</g>
	<g>
		<g>
			<path style="fill:#83BAA8;" d="M124.466,335.234c-7.08-13.373-18.357-26.45-33.422-27.872c-5.262-0.497-11.009,0.722-14.579,4.62
				c-4.66,5.089-4.207,13.329-0.828,19.346c3.378,6.017,9.057,10.331,14.556,14.499c7.91,5.995,15.779,12.055,23.271,18.565
				c7.552,6.563,14.939,13.918,18.383,23.312c0.534,1.458,0.988,2.988,1.956,4.202c0.968,1.213,2.627,2.039,4.087,1.515
				c4.192-1.504-1.249-24.031-2.125-27.827C133.331,355.043,129.533,344.805,124.466,335.234z"/>
			<path style="fill:#4D867E;" d="M81.089,310.981c6.215,2.625,11.945,6.736,16.95,11.221c5.51,4.939,10.006,10.755,14.435,16.65
				c8.076,10.748,16.176,21.88,21.308,34.392c1.396,3.403,2.541,6.914,3.361,10.502c0.83,3.628,1.446,7.415,1.007,11.139
				c-0.044,0.369-0.62,0.509-0.703,0.083c-0.609-3.151-0.971-6.345-1.66-9.483c-0.689-3.137-1.637-6.215-2.78-9.215
				c-2.347-6.16-5.468-11.99-8.964-17.569c-3.569-5.696-7.576-11.095-11.59-16.481c-4.235-5.682-8.441-11.45-13.527-16.414
				c-2.715-2.65-5.665-5.056-8.787-7.211c-3.152-2.176-6.497-3.964-9.857-5.788C79.301,312.273,80.026,310.533,81.089,310.981z"/>
		</g>
		<g>
			<path style="fill:#4D867E;" d="M106.618,356.731c-11.016-7.569-25.196-13.188-37.57-8.134c-4.322,1.765-8.321,5.072-9.52,9.584
				c-1.564,5.891,2.164,12.155,7.271,15.481s11.318,4.379,17.329,5.39c8.645,1.454,17.285,2.976,25.814,5.004
				c8.598,2.046,17.39,4.778,23.932,10.721c1.015,0.922,1.996,1.935,3.251,2.488c1.254,0.553,2.891,0.52,3.819-0.487
				c2.665-2.893-10.815-18.298-13.054-20.91C121.665,368.607,114.502,362.148,106.618,356.731z"/>
			<path style="fill:#83BAA8;" d="M62.738,355.505c5.939-0.49,12.107,0.382,17.86,1.845c6.335,1.61,12.235,4.322,18.114,7.123
				c10.721,5.107,21.617,10.504,30.757,18.196c2.486,2.092,4.819,4.372,6.93,6.844c2.135,2.5,4.168,5.212,5.348,8.306
				c0.117,0.307-0.277,0.653-0.516,0.353c-1.766-2.217-3.357-4.569-5.181-6.742c-1.824-2.173-3.825-4.194-5.948-6.075
				c-4.359-3.861-9.188-7.146-14.208-10.082c-5.125-2.998-10.471-5.583-15.818-8.156c-5.641-2.714-11.294-5.507-17.307-7.31
				c-3.21-0.963-6.504-1.638-9.829-2.047c-3.358-0.413-6.708-0.443-10.084-0.495C61.868,357.248,61.723,355.589,62.738,355.505z"/>
		</g>
	</g>
	<g>
		<ellipse style="fill:#74A7CB;" cx="269.978" cy="422.879" rx="119.517" ry="24.511"/>
		<ellipse style="fill:#74A7CB;" cx="221.119" cy="404.171" rx="118.577" ry="23.487"/>
		<g>
			<polygon style="fill:#FFFFFF;" points="282.423,175.049 298.353,185.595 144.363,191.558 129.728,179.245 			"/>
			<path style="fill:#D5F2F9;" d="M158.528,183.995c7.819-0.326,15.636-0.668,23.455-0.993c2.173-0.09,4.345-0.181,6.518-0.271
				c2.145-0.089,4.327-0.028,6.398-0.654c0.307-0.093,0.345-0.589,0-0.661c-1.849-0.388-3.684-0.232-5.557-0.149
				c-1.892,0.084-3.785,0.168-5.677,0.252c-3.961,0.176-7.922,0.349-11.883,0.519c-7.838,0.337-15.68,0.638-23.515,1.057
				c-2.209,0.118-4.419,0.218-6.627,0.357c-2.05,0.129-4.229,0.117-6.245,0.562l0.755,0.635c1.536,0.112,3.109,0.006,4.635-0.02
				c1.924-0.033,3.848-0.11,5.772-0.172C150.548,184.326,154.538,184.161,158.528,183.995z"/>
			<path style="fill:#D5F2F9;" d="M227.781,184.018c-4.16-0.383-8.439-0.077-12.616-0.035c-4.205,0.042-8.411,0.092-12.616,0.165
				c-8.481,0.147-16.963,0.32-25.441,0.599c-2.351,0.077-4.704,0.152-7.054,0.26c-2.291,0.105-4.631,0.09-6.889,0.524
				c-0.227,0.044-0.142,0.346,0.05,0.37c2.12,0.26,4.282,0.117,6.412,0.082c2.066-0.035,4.132-0.089,6.199-0.135
				c4.204-0.094,8.408-0.212,12.613-0.305c8.338-0.185,16.677-0.334,25.016-0.459c2.352-0.035,4.704-0.067,7.056-0.095
				c2.427-0.029,4.854,0.052,7.27-0.203C228.27,184.732,228.276,184.064,227.781,184.018z"/>
			<g>
				<path style="fill:#D5F2F9;" d="M205.066,181.776c3.279,0.244,6.565,0.116,9.849,0.039c3.212-0.075,6.424-0.156,9.635-0.235
					c6.495-0.16,12.99-0.311,19.485-0.456c12.783-0.285,25.559-0.663,38.324-1.427c2.174-0.13,4.361-0.24,6.55-0.353l-2.274-1.505
					c-0.721,0.054-1.443,0.11-2.163,0.157c-6.343,0.415-12.692,0.741-19.042,1.017c-12.832,0.558-25.686,0.822-38.524,1.221
					c-3.569,0.111-7.137,0.219-10.706,0.334c-3.714,0.12-7.446,0.15-11.134,0.63C204.704,181.245,204.686,181.748,205.066,181.776z"
					/>
				<path style="fill:#D5F2F9;" d="M291.009,180.733c-0.407,0.053-0.814,0.111-1.22,0.154c-2.104,0.225-4.211,0.436-6.321,0.607
					c-4.358,0.352-8.726,0.617-13.093,0.821c-4.369,0.204-8.742,0.332-13.116,0.366c-4.349,0.033-8.785-0.348-13.116,0.034
					c-0.347,0.031-0.491,0.592-0.089,0.66c4.306,0.729,8.848,0.543,13.205,0.572c4.372,0.029,8.746-0.027,13.116-0.187
					c4.371-0.161,8.735-0.439,13.093-0.81c2.248-0.191,4.496-0.385,6.742-0.611c0.938-0.094,1.891-0.167,2.844-0.252
					L291.009,180.733z"/>
			</g>
			<path style="fill:#697BAE;" d="M283.157,173.544c0,0-152.961,3.773-159.238,5.267c-6.277,1.494-8.581,15.013-8.659,33.304
				c-0.078,18.291,5.276,173.132,7.095,182.744c1.819,9.611,25.923,19.404,36.856,19.469c10.939,0.065,144.079-0.765,149.503-1.45
				c5.423-0.685-8.042-226.759-8.814-228.072c-0.772-1.313-137.648,4.694-143.464,4.537c-5.816-0.157-25.221-8.671-21.078-8.144
				c4.143,0.527,145.658-5.321,148.255-5.251C286.208,176.017,287.314,173.553,283.157,173.544z"/>
			<path style="fill:#495E84;" d="M155.028,198.755c-0.04-2.427,1.847-4.45,4.271-4.58l140.808-7.528
				c-0.048-0.549-0.089-0.979-0.123-1.288c0-0.001,0-0.002,0-0.003c-0.001-0.013-0.003-0.027-0.004-0.039
				c-0.006-0.049-0.011-0.091-0.016-0.133c-0.002-0.016-0.004-0.03-0.006-0.045c-0.002-0.019-0.005-0.04-0.007-0.057
				c-0.004-0.031-0.008-0.058-0.012-0.083c-0.002-0.012-0.003-0.019-0.005-0.03c-0.003-0.018-0.006-0.038-0.009-0.054
				c-0.003-0.015-0.006-0.033-0.008-0.045c-0.007-0.032-0.013-0.056-0.018-0.065c-0.008-0.013-0.036-0.026-0.071-0.038
				c-0.014-0.005-0.029-0.009-0.047-0.014c-0.015-0.004-0.037-0.008-0.055-0.011c-5.429-1.039-137.578,4.754-143.291,4.6
				c-5.174-0.14-21.089-6.889-21.625-8.007c-0.07-0.055-0.101-0.098-0.08-0.127c0.038-0.053,0.238-0.06,0.627-0.01
				c0.042,0.005,0.104,0.01,0.175,0.014c0.018,0.001,0.038,0.002,0.058,0.003c0.072,0.003,0.154,0.007,0.25,0.009
				c0.008,0,0.014,0,0.022,0.001c0.106,0.003,0.23,0.004,0.363,0.005c0.031,0,0.063,0.001,0.096,0.001
				c0.13,0.001,0.269,0.001,0.422,0.001c0.013,0,0.024,0,0.037,0c0.168,0,0.353-0.002,0.548-0.003c0.043,0,0.088-0.001,0.131-0.001
				c0.181-0.002,0.37-0.004,0.572-0.007c0.022,0,0.043,0,0.065-0.001c0.234-0.003,0.481-0.007,0.742-0.011
				c0.035-0.001,0.072-0.001,0.108-0.002c0.243-0.004,0.496-0.009,0.761-0.014c0.025-0.001,0.05-0.001,0.076-0.001
				c0.293-0.006,0.6-0.012,0.919-0.02c0.032-0.001,0.066-0.001,0.099-0.002c0.292-0.007,0.595-0.014,0.908-0.021
				c0.047-0.001,0.093-0.002,0.141-0.003c0.345-0.008,0.701-0.017,1.07-0.027c0.022-0.001,0.046-0.001,0.068-0.002
				c0.354-0.009,0.719-0.019,1.094-0.029c0.047-0.001,0.094-0.003,0.141-0.004c0.394-0.011,0.798-0.022,1.215-0.034
				c0.04-0.001,0.081-0.002,0.121-0.003c0.377-0.011,0.763-0.022,1.157-0.033c0.087-0.003,0.173-0.005,0.261-0.008
				c0.424-0.012,0.854-0.025,1.297-0.039c0.034-0.001,0.07-0.002,0.104-0.003c0.464-0.014,0.938-0.028,1.422-0.043
				c0.015,0,0.03-0.001,0.045-0.001c1.005-0.031,2.054-0.064,3.142-0.099c0.069-0.002,0.138-0.004,0.207-0.007
				c0.468-0.015,0.945-0.031,1.427-0.046c0.076-0.003,0.15-0.005,0.226-0.007c0.525-0.017,1.06-0.035,1.601-0.053
				c0.127-0.004,0.255-0.009,0.383-0.013c0.436-0.015,0.877-0.029,1.322-0.044c0.115-0.004,0.229-0.008,0.345-0.012
				c0.545-0.018,1.098-0.037,1.656-0.056c0.152-0.005,0.305-0.01,0.458-0.016c0.384-0.013,0.772-0.026,1.162-0.04
				c0.29-0.01,0.579-0.02,0.872-0.03c0.458-0.016,0.919-0.032,1.385-0.048c0.298-0.01,0.598-0.021,0.899-0.031
				c0.26-0.009,0.522-0.018,0.784-0.027c0.276-0.01,0.551-0.019,0.829-0.029c0.286-0.01,0.577-0.02,0.866-0.031
				c0.69-0.024,1.385-0.049,2.088-0.074c0.05-0.002,0.1-0.003,0.15-0.005c1.31-0.047,2.644-0.094,3.998-0.143
				c0.244-0.009,0.488-0.018,0.733-0.026c0.347-0.013,0.695-0.025,1.045-0.038c0.565-0.021,1.13-0.041,1.701-0.062
				c0.296-0.011,0.595-0.022,0.893-0.033c0.246-0.009,0.493-0.018,0.74-0.027c1.101-0.04,2.213-0.081,3.334-0.122
				c3.618-0.134,7.332-0.272,11.11-0.414c0.519-0.019,1.039-0.039,1.559-0.059c0.135-0.005,0.269-0.01,0.404-0.015
				c0.993-0.037,1.989-0.075,2.988-0.113c1.701-0.064,3.411-0.129,5.125-0.194c0.628-0.024,1.258-0.048,1.887-0.072
				c1.631-0.062,3.265-0.125,4.898-0.187c1.132-0.043,2.264-0.087,3.394-0.13c0.565-0.022,1.13-0.044,1.695-0.065
				c34.434-1.324,67.221-2.635,68.458-2.602c1.298,0.035,2.224-0.564,2.305-1.172c0.05-0.372-0.222-0.747-0.912-0.983
				c-0.037-0.013-0.079-0.024-0.118-0.036c-0.1-0.03-0.208-0.057-0.324-0.081c-0.047-0.01-0.094-0.02-0.144-0.029
				c-0.164-0.029-0.339-0.054-0.534-0.07c-0.003,0-0.005-0.001-0.008-0.001c-0.22-0.018-0.459-0.029-0.719-0.029
				c0,0-4.104,0.101-10.989,0.277c-0.093,0.002-0.189,0.005-0.282,0.007c-0.483,0.012-0.977,0.025-1.486,0.038
				c-0.042,0.001-0.082,0.002-0.124,0.003c-3.942,0.101-8.647,0.223-13.915,0.361c-0.093,0.003-0.189,0.005-0.283,0.008
				c-0.704,0.018-1.417,0.037-2.14,0.056c-0.03,0.001-0.06,0.001-0.09,0.002c-2.296,0.061-4.687,0.124-7.157,0.19
				c-0.143,0.004-0.285,0.008-0.428,0.011c-0.706,0.019-1.417,0.038-2.135,0.057c-0.21,0.006-0.423,0.011-0.634,0.017
				c-5.075,0.136-10.44,0.282-15.979,0.435c-0.195,0.005-0.391,0.011-0.587,0.016c-0.592,0.016-1.186,0.033-1.782,0.049
				c-2.192,0.061-4.405,0.123-6.637,0.185c-0.225,0.006-0.45,0.013-0.675,0.019c-2.401,0.068-4.817,0.136-7.245,0.206
				c-0.065,0.002-0.131,0.004-0.196,0.006c-2.524,0.072-5.056,0.146-7.588,0.219c-0.042,0.001-0.083,0.002-0.125,0.004
				c-2.486,0.072-4.97,0.146-7.444,0.219c-0.71,0.021-1.419,0.042-2.127,0.064c-0.605,0.018-1.21,0.036-1.814,0.055
				c-1.207,0.036-2.411,0.073-3.61,0.109c-0.763,0.023-1.522,0.047-2.28,0.07c-0.867,0.027-1.731,0.053-2.592,0.08
				c-0.301,0.009-0.601,0.018-0.901,0.028c-2.22,0.069-4.417,0.138-6.581,0.208c-1.725,0.055-3.43,0.11-5.111,0.165
				c-0.374,0.012-0.744,0.024-1.115,0.037c-0.276,0.009-0.551,0.018-0.825,0.027c-2.107,0.07-4.176,0.139-6.193,0.208
				c-1.078,0.037-2.142,0.074-3.191,0.11c-1.014,0.036-2.013,0.071-2.997,0.106c-0.24,0.009-0.476,0.017-0.714,0.026
				c-0.422,0.015-0.841,0.03-1.257,0.045c-0.694,0.025-1.38,0.05-2.057,0.075c-0.499,0.018-0.994,0.037-1.483,0.055
				c-0.134,0.005-0.27,0.01-0.403,0.015c-0.897,0.034-1.778,0.067-2.641,0.101c-1.013,0.039-2.002,0.078-2.965,0.117
				c0,0-0.001,0-0.001,0c-0.917,0.037-1.807,0.073-2.676,0.109c-0.085,0.003-0.169,0.007-0.253,0.01
				c-0.832,0.035-1.64,0.069-2.424,0.103c-0.051,0.002-0.102,0.004-0.153,0.007c-0.831,0.036-1.636,0.072-2.408,0.108
				c-0.7,0.032-1.376,0.064-2.026,0.096c-0.511,0.025-1,0.049-1.479,0.073c-0.088,0.005-0.178,0.009-0.265,0.014
				c-0.441,0.023-0.865,0.045-1.277,0.067c-0.097,0.005-0.194,0.01-0.29,0.016c-0.405,0.022-0.798,0.044-1.173,0.066
				c-0.075,0.004-0.146,0.009-0.219,0.013c-0.378,0.022-0.743,0.044-1.087,0.066c-0.026,0.002-0.052,0.003-0.078,0.005
				c-0.446,0.028-0.865,0.056-1.253,0.083c-0.209,0.015-0.407,0.029-0.599,0.044c-0.084,0.006-0.162,0.013-0.242,0.019
				c-0.105,0.008-0.211,0.016-0.31,0.024c-0.081,0.007-0.156,0.013-0.233,0.019c-0.093,0.008-0.185,0.016-0.272,0.023
				c-0.074,0.007-0.145,0.013-0.216,0.02c-0.076,0.007-0.15,0.014-0.221,0.021c-0.071,0.007-0.14,0.014-0.206,0.021
				c-0.066,0.007-0.128,0.014-0.189,0.021c-0.058,0.006-0.115,0.013-0.169,0.019c-0.061,0.007-0.116,0.014-0.171,0.021
				c-0.046,0.006-0.094,0.012-0.136,0.018c-0.054,0.008-0.101,0.015-0.148,0.023c-0.033,0.005-0.068,0.01-0.098,0.016
				c-0.06,0.01-0.112,0.021-0.158,0.031c-0.009,0.002-0.021,0.004-0.029,0.006c-0.185,0.044-0.366,0.101-0.545,0.165
				c-0.057,0.021-0.112,0.047-0.168,0.07c-0.12,0.049-0.24,0.099-0.356,0.157c-0.065,0.032-0.129,0.069-0.193,0.104
				c-0.105,0.058-0.21,0.118-0.313,0.184c-0.066,0.042-0.131,0.087-0.195,0.132c-0.099,0.069-0.197,0.142-0.294,0.219
				c-0.063,0.049-0.125,0.1-0.187,0.153c-0.097,0.083-0.192,0.171-0.287,0.261c-0.058,0.055-0.116,0.109-0.172,0.166
				c-0.102,0.104-0.201,0.214-0.3,0.327c-0.046,0.052-0.093,0.101-0.138,0.155c-0.294,0.352-0.575,0.741-0.842,1.169
				c-0.183,0.294-0.358,0.612-0.53,0.941c-0.043,0.082-0.086,0.166-0.128,0.251c-0.336,0.675-0.649,1.417-0.938,2.224
				c-0.036,0.101-0.072,0.203-0.108,0.307c-0.284,0.822-0.544,1.708-0.783,2.653c-0.03,0.12-0.06,0.24-0.09,0.362
				c-0.234,0.961-0.446,1.979-0.637,3.053c-0.024,0.134-0.047,0.268-0.071,0.404c-0.093,0.543-0.183,1.095-0.266,1.664
				c0,0.001,0,0.002,0,0.003c-0.083,0.571-0.159,1.159-0.233,1.756c-0.018,0.149-0.036,0.299-0.054,0.449
				c-0.141,1.204-0.264,2.457-0.367,3.756c-0.013,0.163-0.026,0.327-0.038,0.492c-0.049,0.653-0.096,1.313-0.137,1.988
				c0,0.001,0,0.001,0,0.002c-0.041,0.677-0.075,1.369-0.107,2.067c-0.008,0.175-0.016,0.35-0.023,0.527
				c-0.03,0.701-0.057,1.409-0.078,2.129c0,0.001,0,0.001,0,0.001c-0.021,0.722-0.037,1.457-0.05,2.197
				c-0.003,0.187-0.006,0.374-0.009,0.562c-0.011,0.743-0.02,1.492-0.023,2.253v0c-0.001,0.143-0.001,0.294-0.001,0.454
				c0.001,2.073,0.057,5.531,0.159,10.08c0.008,0.35,0.016,0.706,0.024,1.069c0.034,1.451,0.071,3.003,0.113,4.647
				c0.042,1.644,0.088,3.381,0.137,5.202c0.025,0.91,0.05,1.842,0.077,2.793c0.08,2.854,0.168,5.887,0.263,9.07
				c0.095,3.183,0.197,6.516,0.306,9.97c0.09,2.878,0.185,5.841,0.284,8.871c0.039,1.212,0.079,2.435,0.12,3.667
				c0.061,1.849,0.123,3.719,0.186,5.608c0.042,1.259,0.085,2.526,0.128,3.8c0.713,21.023,1.56,43.952,2.385,63.959
				c0.075,1.819,0.15,3.613,0.225,5.38c0.075,1.767,0.149,3.506,0.223,5.214c0.148,3.415,0.294,6.705,0.438,9.84
				c0.048,1.045,0.095,2.073,0.143,3.083c0.047,1.01,0.094,2.001,0.141,2.973c0.023,0.486,0.046,0.967,0.07,1.443
				c0.671,13.81,1.264,23.443,1.677,25.62c0.512,2.703,2.786,5.421,6.034,7.932c1.083,0.837,2.274,1.651,3.544,2.435
				c8.467,5.221,20.444,9.061,27.277,9.102C157.914,373.425,155.473,226.003,155.028,198.755z"/>
			<path style="fill:#495E84;" d="M273.725,239.976l-84.184,3.035c-3.805,0.137-7.03-2.863-7.167-6.668l-0.28-7.762
				c-0.137-3.805,2.864-7.03,6.668-7.167l84.184-3.035c3.805-0.137,7.03,2.863,7.167,6.668l0.28,7.762
				C280.53,236.614,277.529,239.839,273.725,239.976z"/>
			<path style="fill:#495E84;" d="M258.452,265.595l-53.988,1.946c-3.272,0.118-6.046-2.463-6.164-5.735l0,0
				c-0.118-3.272,2.463-6.046,5.735-6.164l53.988-1.946c3.272-0.118,6.046,2.463,6.164,5.735l0,0
				C264.305,262.703,261.724,265.477,258.452,265.595z"/>
			<path style="fill:#697BAE;" d="M152.239,248.661c-0.786-1.036-2.37-1.075-3.583-1.162c-1.357-0.098-2.737,0.026-4.098-0.003
				c-2.754-0.058-5.495-0.342-8.199-0.869c-2.678-0.522-5.325-1.263-7.9-2.161c-2.594-0.905-5.096-2.464-7.867-2.659
				c-0.616-0.043-1.074,0.753-0.725,1.264c1.636,2.397,4.554,3.471,7.145,4.55c2.705,1.127,5.495,1.976,8.362,2.579
				c2.835,0.596,5.731,0.968,8.625,1.101c1.485,0.068,2.99,0.115,4.47-0.048c1.149-0.126,3.227-0.48,3.769-1.658
				C152.367,249.314,152.446,248.933,152.239,248.661z"/>
			<path style="fill:#697BAE;" d="M155.026,374.236c-1.371-0.361-2.839-0.427-4.245-0.605c-1.329-0.168-2.652-0.386-3.968-0.639
				c-2.665-0.513-5.299-1.188-7.884-2.015c-2.558-0.819-5.088-1.712-7.542-2.807c-1.271-0.567-2.52-1.181-3.777-1.777
				c-1.175-0.557-2.331-1.221-3.662-0.953c-0.45,0.091-0.719,0.633-0.598,1.054c0.387,1.343,1.674,2.08,2.795,2.781
				c1.176,0.736,2.41,1.373,3.654,1.986c2.568,1.266,5.224,2.416,7.94,3.325c2.633,0.881,5.322,1.599,8.043,2.15
				c1.36,0.275,2.729,0.507,4.103,0.7c1.516,0.213,3.136,0.498,4.665,0.331C156.443,377.56,157.13,374.79,155.026,374.236z"/>
			<path style="fill:#697BAE;" d="M149.594,223.458c-0.603-2.15-1.691-4.017-3.264-5.601c-0.856-0.662-1.713-1.323-2.569-1.985
				c-1.98-1.148-4.115-1.726-6.407-1.733c-1.748-0.066-3.378,0.299-4.891,1.093c-1.574,0.512-2.935,1.387-4.085,2.624
				c-1.238,1.15-2.113,2.512-2.625,4.085c-0.795,1.513-1.159,3.143-1.093,4.891c0.151,1.125,0.302,2.249,0.453,3.374
				c0.603,2.15,1.691,4.018,3.264,5.601c0.856,0.662,1.713,1.323,2.569,1.985c1.98,1.148,4.115,1.726,6.407,1.733
				c1.748,0.066,3.378-0.298,4.89-1.093c1.574-0.512,2.935-1.387,4.085-2.625c1.238-1.15,2.113-2.511,2.625-4.085
				c0.795-1.513,1.159-3.143,1.093-4.891C149.896,225.707,149.745,224.582,149.594,223.458z"/>
			<path style="fill:#697BAE;" d="M150.676,255.791c-5.104,1.53-10.519,1.418-15.686,0.239c-2.489-0.568-4.924-1.357-7.3-2.288
				c-1.152-0.452-2.295-0.93-3.442-1.394c-1.219-0.493-2.242-1.059-3.587-0.796c-0.587,0.115-0.724,0.796-0.511,1.255
				c0.569,1.223,1.785,1.738,2.915,2.346c1.221,0.657,2.472,1.226,3.75,1.764c2.558,1.077,5.178,2.005,7.878,2.659
				c5.593,1.354,11.451,1.544,17.023-0.014C154.137,258.885,153.094,255.066,150.676,255.791z"/>
		</g>
		<g>
			<polygon style="fill:#FFFFFF;" points="353.288,162.87 371.295,174.792 197.222,181.532 180.678,167.613 			"/>
			<path style="fill:#D5F2F9;" d="M213.235,172.983c8.838-0.369,17.676-0.755,26.514-1.123c2.456-0.102,4.912-0.204,7.368-0.307
				c2.425-0.101,4.891-0.032,7.233-0.739c0.347-0.105,0.39-0.665,0-0.747c-2.09-0.439-4.164-0.263-6.282-0.169
				c-2.139,0.095-4.278,0.19-6.417,0.285c-4.477,0.199-8.955,0.394-13.433,0.587c-8.861,0.381-17.725,0.721-26.581,1.195
				c-2.497,0.134-4.996,0.247-7.491,0.403c-2.317,0.146-4.78,0.132-7.06,0.635l0.854,0.718c1.736,0.126,3.514,0.007,5.24-0.023
				c2.175-0.038,4.35-0.124,6.524-0.195C204.215,173.357,208.724,173.171,213.235,172.983z"/>
			<path style="fill:#D5F2F9;" d="M291.519,173.009c-4.703-0.432-9.54-0.087-14.262-0.04c-4.754,0.047-9.507,0.104-14.261,0.187
				c-9.587,0.166-19.176,0.362-28.759,0.678c-2.658,0.088-5.317,0.172-7.974,0.293c-2.59,0.118-5.235,0.102-7.788,0.593
				c-0.256,0.049-0.161,0.391,0.057,0.418c2.397,0.293,4.841,0.133,7.248,0.092c2.336-0.039,4.671-0.101,7.007-0.153
				c4.753-0.106,9.505-0.24,14.257-0.345c9.425-0.21,18.852-0.378,28.278-0.519c2.659-0.04,5.318-0.076,7.977-0.107
				c2.744-0.033,5.487,0.059,8.219-0.23C292.072,173.816,292.079,173.061,291.519,173.009z"/>
			<g>
				<path style="fill:#D5F2F9;" d="M265.842,170.475c3.706,0.276,7.421,0.13,11.134,0.044c3.631-0.085,7.261-0.176,10.892-0.266
					c7.342-0.181,14.684-0.352,22.026-0.516c14.451-0.322,28.893-0.75,43.322-1.613c2.457-0.147,4.93-0.271,7.404-0.399l-2.57-1.702
					c-0.815,0.061-1.632,0.124-2.445,0.178c-7.17,0.469-14.347,0.838-21.526,1.15c-14.505,0.631-29.036,0.929-43.548,1.381
					c-4.034,0.125-8.068,0.247-12.102,0.378c-4.199,0.136-8.417,0.169-12.586,0.712
					C265.433,169.875,265.413,170.443,265.842,170.475z"/>
				<path style="fill:#D5F2F9;" d="M362.993,169.295c-0.46,0.06-0.921,0.125-1.379,0.174c-2.379,0.255-4.76,0.493-7.145,0.686
					c-4.926,0.398-9.863,0.698-14.801,0.928c-4.939,0.23-9.882,0.376-14.826,0.414c-4.916,0.038-9.931-0.393-14.826,0.038
					c-0.392,0.035-0.555,0.669-0.101,0.746c4.868,0.824,10.002,0.614,14.927,0.647c4.943,0.033,9.887-0.03,14.826-0.211
					c4.941-0.182,9.874-0.497,14.801-0.916c2.542-0.216,5.083-0.436,7.621-0.691c1.061-0.107,2.138-0.188,3.215-0.285
					L362.993,169.295z"/>
			</g>
			<path style="fill:#FFCE5E;" d="M354.117,161.169c0,0-172.91,4.265-180.005,5.953c-7.095,1.689-9.701,16.971-9.788,37.647
				s5.964,195.711,8.021,206.576c2.057,10.865,29.304,21.934,41.662,22.008c12.365,0.073,162.869-0.864,169-1.639
				c6.131-0.775-9.091-256.331-9.964-257.816c-0.873-1.484-155.599,5.306-162.174,5.128c-6.575-0.177-28.51-9.802-23.826-9.206
				c4.684,0.596,164.654-6.015,167.589-5.936C357.566,163.965,358.816,161.179,354.117,161.169z"/>
			<path style="fill:#FF8F3D;" d="M209.278,189.668c-0.045-2.743,2.088-5.03,4.828-5.177l159.172-8.509
				c-0.054-0.621-0.1-1.107-0.139-1.456c0-0.001,0-0.002,0-0.003c-0.002-0.014-0.003-0.031-0.005-0.044
				c-0.006-0.056-0.012-0.103-0.018-0.15c-0.002-0.018-0.004-0.035-0.007-0.051c-0.003-0.022-0.006-0.045-0.008-0.064
				c-0.004-0.035-0.009-0.066-0.013-0.094c-0.002-0.013-0.004-0.022-0.005-0.034c-0.003-0.021-0.007-0.043-0.01-0.061
				c-0.003-0.018-0.006-0.037-0.009-0.051c-0.008-0.036-0.015-0.063-0.021-0.073c-0.009-0.015-0.041-0.029-0.081-0.043
				c-0.016-0.005-0.033-0.011-0.053-0.016c-0.017-0.004-0.042-0.008-0.062-0.013c-6.137-1.174-155.52,5.374-161.978,5.199
				c-5.849-0.158-23.839-7.787-24.445-9.051c-0.079-0.062-0.114-0.111-0.09-0.144c0.044-0.06,0.27-0.068,0.709-0.012
				c0.048,0.006,0.118,0.011,0.198,0.016c0.021,0.001,0.042,0.002,0.065,0.003c0.082,0.004,0.174,0.008,0.283,0.01
				c0.009,0,0.016,0.001,0.025,0.001c0.12,0.003,0.26,0.005,0.41,0.006c0.035,0,0.072,0.001,0.108,0.001
				c0.147,0.001,0.304,0.001,0.477,0.001c0.014,0,0.027,0,0.042,0c0.19,0,0.399-0.002,0.619-0.003c0.048,0,0.099-0.001,0.149-0.001
				c0.204-0.002,0.419-0.004,0.647-0.007c0.025,0,0.048-0.001,0.074-0.001c0.264-0.003,0.544-0.008,0.838-0.013
				c0.04-0.001,0.081-0.001,0.122-0.002c0.275-0.005,0.561-0.01,0.861-0.016c0.029-0.001,0.057-0.001,0.086-0.002
				c0.331-0.007,0.678-0.014,1.039-0.022c0.037-0.001,0.075-0.002,0.112-0.002c0.33-0.007,0.673-0.015,1.026-0.024
				c0.053-0.001,0.105-0.003,0.159-0.004c0.39-0.009,0.792-0.02,1.209-0.03c0.025-0.001,0.052-0.001,0.077-0.002
				c0.4-0.01,0.813-0.021,1.237-0.033c0.053-0.001,0.106-0.003,0.159-0.004c0.445-0.012,0.902-0.025,1.373-0.038
				c0.045-0.001,0.092-0.003,0.137-0.004c0.426-0.012,0.862-0.025,1.307-0.038c0.098-0.003,0.196-0.006,0.295-0.008
				c0.479-0.014,0.966-0.029,1.466-0.044c0.039-0.001,0.079-0.002,0.118-0.004c0.525-0.016,1.06-0.032,1.608-0.049
				c0.017,0,0.034-0.001,0.051-0.001c1.136-0.035,2.322-0.073,3.552-0.112c0.078-0.002,0.156-0.005,0.234-0.008
				c0.529-0.017,1.068-0.034,1.613-0.052c0.086-0.003,0.169-0.005,0.255-0.008c0.594-0.019,1.198-0.04,1.81-0.06
				c0.143-0.005,0.288-0.01,0.432-0.015c0.493-0.016,0.991-0.033,1.495-0.05c0.131-0.005,0.259-0.009,0.39-0.013
				c0.616-0.021,1.241-0.042,1.872-0.063c0.172-0.006,0.345-0.012,0.518-0.018c0.434-0.015,0.873-0.03,1.314-0.045
				c0.327-0.011,0.654-0.022,0.986-0.034c0.518-0.018,1.039-0.036,1.565-0.054c0.337-0.012,0.676-0.023,1.016-0.035
				c0.294-0.01,0.59-0.021,0.887-0.031c0.311-0.011,0.623-0.022,0.937-0.033c0.324-0.011,0.653-0.023,0.979-0.034
				c0.78-0.028,1.565-0.056,2.361-0.084c0.057-0.002,0.113-0.004,0.169-0.006c1.48-0.053,2.989-0.107,4.52-0.162
				c0.276-0.01,0.551-0.02,0.828-0.03c0.393-0.014,0.786-0.028,1.181-0.043c0.638-0.023,1.278-0.046,1.923-0.07
				c0.335-0.012,0.673-0.025,1.01-0.037c0.278-0.01,0.557-0.02,0.837-0.031c1.244-0.046,2.501-0.092,3.769-0.138
				c4.089-0.151,8.289-0.308,12.559-0.468c0.586-0.022,1.174-0.044,1.763-0.066c0.152-0.006,0.304-0.011,0.456-0.017
				c1.122-0.042,2.248-0.085,3.378-0.128c1.923-0.073,3.856-0.146,5.793-0.22c0.71-0.027,1.422-0.054,2.133-0.081
				c1.844-0.07,3.69-0.141,5.537-0.212c1.279-0.049,2.559-0.098,3.837-0.147c0.639-0.024,1.278-0.049,1.916-0.074
				c38.924-1.497,75.988-2.979,77.387-2.941c1.468,0.039,2.514-0.637,2.606-1.325c0.056-0.421-0.25-0.844-1.031-1.112
				c-0.042-0.014-0.089-0.027-0.134-0.041c-0.113-0.034-0.236-0.064-0.367-0.092c-0.054-0.011-0.106-0.023-0.163-0.033
				c-0.186-0.033-0.384-0.061-0.604-0.08c-0.003,0-0.006-0.001-0.009-0.001c-0.248-0.021-0.519-0.032-0.813-0.033
				c0,0-4.64,0.114-12.422,0.313c-0.105,0.003-0.213,0.005-0.319,0.008c-0.546,0.014-1.105,0.028-1.68,0.043
				c-0.047,0.001-0.093,0.002-0.14,0.004c-4.456,0.114-9.775,0.252-15.73,0.408c-0.106,0.003-0.214,0.006-0.32,0.008
				c-0.796,0.021-1.601,0.042-2.419,0.064c-0.034,0.001-0.067,0.002-0.101,0.003c-2.595,0.068-5.299,0.14-8.091,0.215
				c-0.161,0.004-0.322,0.009-0.484,0.013c-0.797,0.021-1.602,0.043-2.413,0.065c-0.238,0.006-0.478,0.013-0.717,0.019
				c-5.737,0.154-11.802,0.319-18.063,0.492c-0.22,0.006-0.442,0.012-0.663,0.018c-0.669,0.018-1.34,0.037-2.014,0.056
				c-2.478,0.069-4.98,0.139-7.503,0.21c-0.254,0.007-0.509,0.014-0.763,0.021c-2.714,0.076-5.446,0.154-8.19,0.233
				c-0.074,0.002-0.148,0.004-0.222,0.006c-2.852,0.082-5.715,0.165-8.578,0.248c-0.047,0.001-0.094,0.003-0.141,0.004
				c-2.81,0.082-5.618,0.165-8.415,0.248c-0.802,0.024-1.604,0.048-2.405,0.072c-0.684,0.021-1.368,0.041-2.05,0.062
				c-1.365,0.041-2.725,0.082-4.08,0.124c-0.862,0.026-1.721,0.053-2.578,0.079c-0.98,0.03-1.957,0.06-2.93,0.091
				c-0.34,0.01-0.679,0.021-1.018,0.032c-2.509,0.078-4.993,0.156-7.44,0.234c-1.95,0.063-3.877,0.125-5.777,0.187
				c-0.422,0.014-0.841,0.028-1.261,0.041c-0.311,0.01-0.623,0.021-0.933,0.031c-2.382,0.079-4.72,0.157-7.001,0.235
				c-1.219,0.042-2.422,0.083-3.607,0.125c-1.146,0.04-2.275,0.08-3.388,0.12c-0.271,0.01-0.538,0.019-0.807,0.029
				c-0.477,0.017-0.951,0.034-1.422,0.051c-0.785,0.029-1.56,0.057-2.326,0.085c-0.564,0.021-1.123,0.042-1.677,0.062
				c-0.151,0.006-0.306,0.011-0.456,0.017c-1.014,0.038-2.01,0.076-2.985,0.114c-1.145,0.044-2.263,0.088-3.351,0.132
				c0,0-0.001,0-0.001,0c-1.037,0.042-2.043,0.083-3.025,0.124c-0.096,0.004-0.191,0.008-0.286,0.012
				c-0.94,0.039-1.854,0.078-2.74,0.117c-0.057,0.002-0.115,0.005-0.172,0.007c-0.939,0.041-1.849,0.082-2.723,0.122
				c-0.791,0.036-1.555,0.072-2.29,0.108c-0.577,0.028-1.131,0.055-1.672,0.083c-0.1,0.005-0.201,0.01-0.299,0.015
				c-0.498,0.025-0.978,0.051-1.444,0.076c-0.11,0.006-0.22,0.012-0.328,0.018c-0.458,0.025-0.902,0.05-1.326,0.074
				c-0.084,0.005-0.165,0.01-0.248,0.015c-0.427,0.025-0.839,0.05-1.229,0.074c-0.029,0.002-0.059,0.004-0.088,0.005
				c-0.504,0.032-0.978,0.063-1.416,0.094c-0.236,0.017-0.46,0.033-0.677,0.049c-0.095,0.007-0.183,0.014-0.274,0.021
				c-0.119,0.009-0.238,0.018-0.35,0.028c-0.091,0.007-0.176,0.015-0.263,0.022c-0.105,0.009-0.209,0.018-0.307,0.027
				c-0.084,0.008-0.165,0.015-0.244,0.022c-0.086,0.008-0.169,0.016-0.249,0.024c-0.08,0.008-0.158,0.016-0.233,0.024
				c-0.074,0.008-0.145,0.015-0.214,0.023c-0.066,0.007-0.13,0.014-0.191,0.022c-0.069,0.008-0.131,0.016-0.193,0.024
				c-0.052,0.007-0.106,0.014-0.154,0.021c-0.061,0.009-0.114,0.017-0.168,0.026c-0.037,0.006-0.077,0.012-0.11,0.018
				c-0.068,0.012-0.126,0.024-0.179,0.036c-0.01,0.002-0.023,0.005-0.033,0.007c-0.209,0.05-0.414,0.114-0.615,0.187
				c-0.064,0.023-0.127,0.053-0.19,0.079c-0.136,0.055-0.271,0.112-0.403,0.178c-0.074,0.037-0.146,0.078-0.218,0.118
				c-0.119,0.066-0.238,0.133-0.354,0.208c-0.074,0.048-0.148,0.098-0.221,0.149c-0.112,0.078-0.223,0.16-0.332,0.247
				c-0.071,0.056-0.142,0.113-0.212,0.173c-0.11,0.094-0.218,0.193-0.324,0.296c-0.065,0.062-0.131,0.123-0.195,0.188
				c-0.115,0.117-0.227,0.242-0.339,0.37c-0.052,0.059-0.105,0.114-0.156,0.175c-0.332,0.397-0.649,0.837-0.952,1.321
				c-0.207,0.332-0.405,0.692-0.599,1.064c-0.049,0.093-0.097,0.188-0.144,0.283c-0.38,0.763-0.733,1.602-1.06,2.514
				c-0.041,0.114-0.082,0.23-0.122,0.347c-0.32,0.93-0.615,1.931-0.886,2.999c-0.034,0.135-0.068,0.272-0.102,0.409
				c-0.264,1.086-0.504,2.237-0.72,3.451c-0.027,0.151-0.054,0.303-0.08,0.456c-0.105,0.614-0.207,1.238-0.301,1.881
				c0,0.001,0,0.002-0.001,0.004c-0.094,0.645-0.18,1.311-0.263,1.985c-0.021,0.168-0.041,0.338-0.061,0.508
				c-0.16,1.361-0.298,2.777-0.415,4.245c-0.015,0.185-0.029,0.37-0.043,0.557c-0.056,0.738-0.109,1.485-0.154,2.248
				c0,0.001,0,0.002,0,0.003c-0.046,0.766-0.085,1.548-0.121,2.337c-0.009,0.198-0.018,0.396-0.026,0.595
				c-0.033,0.793-0.064,1.592-0.088,2.407c0,0.001,0,0.001,0,0.001c-0.024,0.816-0.042,1.647-0.056,2.484
				c-0.004,0.211-0.007,0.423-0.01,0.635c-0.013,0.84-0.022,1.687-0.026,2.546v0c-0.001,0.162-0.001,0.333-0.001,0.513
				c0.001,2.343,0.064,6.252,0.179,11.395c0.009,0.395,0.018,0.798,0.028,1.208c0.038,1.64,0.081,3.394,0.128,5.253
				c0.047,1.859,0.099,3.822,0.155,5.881c0.028,1.029,0.057,2.082,0.087,3.157c0.09,3.226,0.189,6.655,0.297,10.253
				c0.107,3.598,0.223,7.366,0.345,11.271c0.102,3.254,0.209,6.603,0.32,10.028c0.045,1.37,0.09,2.752,0.136,4.145
				c0.069,2.09,0.139,4.204,0.211,6.339c0.048,1.423,0.096,2.855,0.145,4.296c0.806,23.765,1.763,49.684,2.696,72.301
				c0.085,2.056,0.169,4.085,0.254,6.082c0.084,1.997,0.168,3.963,0.252,5.894c0.167,3.861,0.332,7.579,0.495,11.124
				c0.054,1.181,0.108,2.343,0.161,3.485c0.054,1.141,0.107,2.262,0.159,3.36c0.026,0.549,0.053,1.093,0.079,1.632
				c0.758,15.611,1.429,26.5,1.895,28.961c0.579,3.056,3.15,6.128,6.822,8.967c1.224,0.947,2.57,1.867,4.006,2.752
				c9.571,5.902,23.111,10.243,30.835,10.289C212.54,387.117,209.782,220.47,209.278,189.668z"/>
			<path style="fill:#FF8F3D;" d="M344.357,236.232l-96.967,3.496c-3.805,0.137-7.03-2.863-7.167-6.668l-0.381-10.579
				c-0.137-3.805,2.864-7.03,6.668-7.167l96.967-3.496c3.805-0.137,7.03,2.863,7.167,6.668l0.381,10.579
				C351.162,232.87,348.161,236.095,344.357,236.232z"/>
			<path style="fill:#FF8F3D;" d="M326.19,265.225l-61.028,2.2c-3.699,0.133-6.834-2.784-6.968-6.483v0
				c-0.133-3.699,2.784-6.834,6.483-6.968l61.028-2.2c3.699-0.133,6.835,2.784,6.968,6.483v0
				C332.806,261.956,329.889,265.091,326.19,265.225z"/>
			<path style="fill:#FFCE5E;" d="M205.192,213.495c-0.889-1.171-2.679-1.215-4.051-1.313c-1.534-0.11-3.093,0.029-4.632-0.004
				c-3.113-0.066-6.211-0.387-9.268-0.983c-3.027-0.591-6.019-1.427-8.931-2.443c-2.933-1.023-5.761-2.786-8.893-3.006
				c-0.697-0.049-1.214,0.852-0.82,1.429c1.85,2.71,5.148,3.924,8.077,5.143c3.058,1.273,6.211,2.234,9.453,2.915
				c3.205,0.673,6.478,1.094,9.749,1.244c1.678,0.077,3.38,0.13,5.053-0.054c1.298-0.142,3.648-0.542,4.261-1.874
				C205.337,214.234,205.426,213.803,205.192,213.495z"/>
			<path style="fill:#FFCE5E;" d="M209.276,388.034c-1.55-0.408-3.21-0.483-4.799-0.684c-1.503-0.19-2.998-0.436-4.486-0.723
				c-3.013-0.58-5.99-1.342-8.912-2.278c-2.891-0.926-5.752-1.935-8.526-3.172c-1.437-0.641-2.849-1.336-4.27-2.009
				c-1.328-0.629-2.635-1.381-4.14-1.077c-0.509,0.103-0.813,0.716-0.676,1.191c0.437,1.518,1.892,2.351,3.16,3.144
				c1.33,0.832,2.724,1.552,4.131,2.245c2.903,1.431,5.905,2.731,8.975,3.758c2.977,0.996,6.016,1.807,9.092,2.43
				c1.538,0.311,3.085,0.573,4.639,0.791c1.714,0.241,3.544,0.563,5.273,0.375C210.878,391.791,211.654,388.66,209.276,388.034z"/>
		</g>
	</g>
	<g>
		<path style="fill:#697BAE;" d="M248.455,396.146c-5.761,1.81-8.372,5.338-8.199,12.951c0.173,7.613,2.401,17.092,6.362,19.73
			c3.961,2.638,8.018,0.287,9.534-3.093s5.13-15.967,1.941-20.511C254.903,400.678,248.455,396.146,248.455,396.146z"/>
		<path style="fill:#EBBA9D;" d="M257.607,388.449c0,0-8.837,6.801-11.378,9.964c-2.541,3.163,2.295,11.672,5.744,11.287
			c3.449-0.384,16.432-7.733,16.432-7.733L257.607,388.449z"/>
		<path style="fill:#222859;" d="M325.106,269.945c0,0,9.063,40.797,9.369,63.482c0.307,22.685-67.135,73.266-67.135,73.266
			L253.24,387.38c0,0,34.334-40.465,39.852-51.501c5.518-11.036-3.065-28.203-3.065-28.203l2.146-33.414L325.106,269.945z"/>
		<path style="fill:#697BAE;" d="M302.288,423.86c-2.452,5.518-1.533,9.81,4.292,14.715c5.824,4.905,14.408,9.503,19.006,8.277
			c4.598-1.226,5.518-5.824,3.985-9.197c-1.533-3.372-8.583-14.408-14.101-15.021C309.952,422.02,302.288,423.86,302.288,423.86z"/>
		<path style="fill:#EBBA9D;" d="M299.41,415.889c0,0,3.365,10.631,5.466,14.101c2.102,3.47,11.752,1.839,12.572-1.533
			c0.82-3.372-1.64-18.087-1.64-18.087L299.41,415.889z"/>
		<path style="fill:#222859;" d="M252.669,276.591c0,0-0.714,8.168,2.658,34.225c3.372,26.057,40.83,106.606,40.83,106.606
			l24.217-4.598c0,0-18.393-102.082-19.619-111.585c-1.226-9.503-4.598-30.962-4.598-30.962L252.669,276.591z"/>
		<path style="fill:#697BAE;" d="M271.131,166.066c0,0-16.303,6.023-23.281,13.831c-6.978,7.809-13.457,42.034-12.627,50.839
			c0.831,8.805,9.968,20.934,20.103,14.288c0,0-4.652,28.244-5.981,33.228c0,0,50.922,14.122,79.665-7.642
			c0,0-3.738-27.289-6.604-37.756c0,0,3.115,1.246,8.847-1.121c8.109-3.35,7.975-11.838,2.243-21.058
			c-5.296-8.519-14.703-36.426-20.685-39.583c-5.981-3.157-18.566-5.213-18.566-5.213l-14.994-2.098L271.131,166.066z"/>
		<path style="fill:#697BAE;" d="M249.346,278.252c0,0,50.922,14.122,79.665-7.642"/>
		<path style="fill:#FFFFFF;" d="M271.941,164.695c-3.655,1.329-3.987,2.326-3.655,4.32c0.332,1.994,11.464,6.147,13.291,6.646
			c1.828,0.498,4.818-4.818,4.818-4.818s4.486,3.157,6.978,2.824c2.492-0.332,3.157-7.31,1.994-8.307
			C294.204,164.363,271.941,164.695,271.941,164.695z"/>
		<path style="fill:#222859;" d="M295.367,107.709c-9.63-6.087-19.138-3.802-23.668-1.206c0.086-1.412-0.052-2.93-1.016-3.101
			c-1.846-0.329-3.021,6.092-3.021,6.092s-4.532-3.787-6.378-2.634c-0.952,0.594,0.329,1.975,1.792,3.174
			c-13.065,2.989-16.081,18.492-12.566,33.396c3.961,16.798,20.435,17.113,20.435,17.113s2.951-4.663,21.432-6.812
			C313.809,151.238,310.473,117.258,295.367,107.709z"/>
		<path style="fill:#EBBA9D;" d="M272.128,154.29l-0.997,11.775c0,0,12.274,6.978,23.114-0.187l-1.495-11.651L272.128,154.29z"/>
		<path style="fill:#EB977D;" d="M292.75,154.228l-20.622,0.062l-0.891,10.527c1.766,0.833,3.817,1.234,5.776,1.459
			c5.785,0.662,12.04,0.34,16.942-2.668L292.75,154.228z"/>
		<path style="fill:#EBBA9D;" d="M259.226,138.861c0,0-5.545-0.126-4.663,4.411c0.882,4.537,4.159,4.537,5.797,4.033
			c0,0,4.863,17.636,23.061,17.39c18.651-0.252,22.935-20.037,17.139-37.427c0,0-20.395,1.666-28.121-4.814
			C272.439,122.453,266.535,137.097,259.226,138.861z"/>
		<path style="fill:#EB977D;" d="M259.949,143.797c-0.22-0.684-0.722-1.166-1.29-1.577c-0.264-0.191-0.549-0.351-0.847-0.481
			c-0.248-0.109-0.461-0.2-0.732-0.226c-0.41-0.04-0.739,0.204-0.785,0.612c-0.035,0.315,0.195,0.53,0.435,0.682
			c0.052,0.033,0.102,0.055,0.16,0.08c0.1,0.042,0.113,0.048,0.041,0.017c-0.057-0.024-0.059-0.025-0.004-0.001
			c0.067,0.031,0.134,0.062,0.2,0.096c0.1,0.051,0.197,0.109,0.293,0.168c-0.069,0.075-0.133,0.155-0.179,0.247
			c-0.197,0.394-0.277,0.839-0.155,1.27c0.224,0.791,1.17,1.276,1.947,1.022C259.832,145.445,260.2,144.577,259.949,143.797z"/>
		<path style="fill:#EB977D;" d="M300.56,127.267c0,0-20.395,1.666-28.121-4.814c0,0-5.904,14.643-13.213,16.408
			c6.734-0.084,12.715-7.187,14.335-12.545C273.561,126.316,291.3,131.458,300.56,127.267z"/>
		<path style="fill:#222859;" d="M260.496,190.336c-0.017-0.035-0.076-0.044-0.101-0.013c-0.336,0.406-0.348,0.97-0.432,1.476
			c-0.096,0.581-0.198,1.161-0.291,1.743c-0.202,1.25-0.362,2.508-0.536,3.763c-0.344,2.472-0.686,4.945-1.048,7.415
			c-0.363,2.473-0.705,4.949-1.084,7.42c-0.375,2.448-0.904,4.901-1.138,7.368c-0.032,0.335,0.495,0.393,0.578,0.078
			c0.645-2.44,0.965-4.993,1.391-7.479c0.421-2.459,0.839-4.919,1.199-7.387c0.355-2.428,0.692-4.858,0.989-7.294
			c0.154-1.257,0.313-2.517,0.419-3.779c0.049-0.588,0.089-1.176,0.132-1.765C260.612,191.369,260.732,190.81,260.496,190.336z"/>
		<path style="fill:#222859;" d="M323.109,233.613c-0.28-1.018-0.607-2.025-0.925-3.032c-0.308-0.973-0.625-1.943-0.949-2.91
			c-0.28-0.836-0.526-1.922-1.073-2.625c-0.098-0.126-0.303-0.016-0.303,0.125c0.002,0.456,0.18,0.888,0.311,1.321
			c0.147,0.488,0.298,0.974,0.456,1.459c0.315,0.97,0.623,1.943,0.922,2.918c0.299,0.975,0.575,1.958,0.879,2.931
			c0.277,0.885,0.463,1.942,0.963,2.731c0.096,0.152,0.334,0.091,0.338-0.092C323.75,235.512,323.353,234.499,323.109,233.613z"/>
		<path style="fill:#222859;" d="M328.318,265.748c-8.289,4.621-17.199,7.958-26.558,9.76c-5.607,1.079-11.288,1.541-16.993,1.606
			c-5.983,0.068-11.975-0.202-17.926-0.828c-5.558-0.585-11.047-1.515-16.527-2.557c-0.049,0.252-0.098,0.505-0.145,0.743
			c4.672,1.13,9.436,1.939,14.195,2.527c6.064,0.75,12.172,1.16,18.282,1.206c5.792,0.043,11.563-0.285,17.28-1.247
			c5.465-0.92,10.836-2.358,16.028-4.297c4.31-1.61,8.516-3.512,12.532-5.758C328.434,266.541,328.377,266.154,328.318,265.748z"/>
		<path style="fill:#222859;" d="M300.126,265.339c-0.346-3.43-0.709-6.859-1.068-10.289c-0.708-6.764-1.386-13.53-2.122-20.291
			c-0.736-6.762-1.607-13.498-2.74-20.206c-1.134-6.714-2.3-13.423-3.434-20.136c-1.292-7.65-2.482-15.325-3.887-22.955
			c-0.06-0.326-0.629-0.255-0.586,0.079c0.88,6.802,2.007,13.579,3.098,20.349c1.086,6.734,2.229,13.458,3.399,20.178
			c1.181,6.785,2.233,13.576,2.992,20.422c0.749,6.754,1.443,13.515,2.155,20.273c0.406,3.853,0.803,7.707,1.221,11.559
			c0.413,3.798,0.711,7.624,1.252,11.406c0.06,0.421,0.772,0.323,0.744-0.101C300.924,272.192,300.472,268.765,300.126,265.339z"/>
		<polygon style="fill:#D5F2F9;" points="272.273,182.14 273.769,179.648 300.85,189.035 319.873,177.238 322.365,178.9 
			300.6,190.031 		"/>
		<polygon style="fill:#FFFFFF;" points="267.621,185.712 271.609,181.06 300.85,189.035 322.116,177.903 326.435,181.392 
			300.684,197.009 		"/>
		<polygon style="fill:#ED6C6B;" points="265.03,183.522 266.691,227.383 302.578,238.681 330.257,216.448 327.166,178.372 
			300.584,193.491 		"/>
		<path style="fill:#EBBA9D;" d="M258.11,239.957c-10.218-3.614-10.259-14.704-10.259-14.704s13.374-8.349,17.237-11.588
			c3.863-3.24,6.604-11.464,7.975-12.585c1.371-1.122,2.367,0.374,2.118,1.869c-0.249,1.495-0.872,3.738-0.872,3.738
			s4.237-6.604,5.607-7.725c1.371-1.122,2.866-0.499,2.492,0.872c-0.374,1.371-3.987,6.978-3.987,6.978s5.732-6.355,6.604-6.729
			c0.872-0.374,2.617-0.125,1.994,1.744c0,0,1.744,0.748,0.623,2.866c0,0,1.371,0.498,0.498,2.617
			c-0.872,2.118-9.47,9.346-10.716,10.965C276.178,219.895,258.11,239.957,258.11,239.957z"/>
		<path style="fill:#EBBA9D;" d="M327.866,209.619c-3.057-3.635-5.134-11.356-6.316-12.533c-1.181-1.178-2.254,0.132-2.158,1.557
			c0.096,1.425,0.473,3.585,0.473,3.585s-3.363-6.582-4.544-7.759c-1.182-1.178-2.641-0.732-2.417,0.588
			c0.224,1.319,3.095,6.909,3.095,6.909s-4.788-6.486-5.571-6.917c-0.783-0.431-2.442-0.358-2.03,1.452c0,0-1.704,0.54-0.848,2.629
			c0,0-1.331,0.341-0.708,2.407c0.622,2.066,7.896,9.716,9.035,11.268c1.394,1.899,6.28,14.318,6.28,14.318
			s8.847,1.371,11.505-8.224C333.662,218.898,329.255,211.271,327.866,209.619z"/>
		<path style="fill:#EB977D;" d="M248.025,225.144c-0.112,0.07-0.175,0.109-0.175,0.109s0.022,5.717,3.816,10.279
			c1.588,1.826,3.668,3.432,6.397,4.407c0.016,0.006,0.03,0.012,0.046,0.018c0,0,0.108-0.121,0.291-0.323
			c0.071-0.079,0.152-0.169,0.246-0.274c0.342-0.38,0.836-0.929,1.446-1.607C255.505,235.82,250.239,229.833,248.025,225.144z"/>
		<path style="fill:#EB977D;" d="M321.37,225.146c0.481,1.197,0.788,1.976,0.788,1.976s8.847,1.371,11.505-8.224
			c0,0-0.018-0.031-0.047-0.081C330.278,222.077,325.95,224.276,321.37,225.146z"/>
		<path style="fill:#EB977D;" d="M275.373,201.793c-0.027-0.153-0.237-0.122-0.28,0c-0.153,0.436-0.202,0.875-0.274,1.33
			c-0.072,0.451-0.158,0.899-0.259,1.345c-0.1,0.446-0.202,0.892-0.324,1.333c-0.061,0.221-0.131,0.438-0.185,0.66
			c-0.047,0.189-0.114,0.389-0.037,0.576c0.036,0.088,0.127,0.141,0.219,0.089c0.345-0.196,0.445-0.822,0.548-1.176
			c0.132-0.455,0.253-0.914,0.344-1.378C275.301,203.682,275.532,202.697,275.373,201.793z"/>
		<path style="fill:#EB977D;" d="M282.444,199.499c-0.031-0.149-0.242-0.13-0.283,0c-0.192,0.609-0.358,1.182-0.676,1.743
			c-0.328,0.578-0.68,1.145-1.025,1.712c-0.355,0.584-0.716,1.166-1.082,1.744c-0.362,0.571-0.785,1.136-1.081,1.743
			c-0.123,0.253,0.211,0.569,0.418,0.322c0.448-0.536,0.798-1.179,1.162-1.774c0.393-0.641,0.781-1.286,1.161-1.935
			c0.354-0.602,0.72-1.203,1.023-1.833C282.313,200.696,282.568,200.092,282.444,199.499z"/>
		<path style="fill:#EB977D;" d="M287.902,204.402c0.336-0.859,0.397-1.785-0.312-2.499c-0.11-0.111-0.273-0.043-0.331,0.071
			c0.014-0.072,0.038-0.142,0.048-0.216c0.05-0.346,0.123-0.755-0.089-1.056c-0.033-0.047-0.109-0.058-0.139,0
			c-0.172,0.328-0.126,0.729-0.218,1.086c-0.112,0.438-0.296,0.854-0.525,1.243c-0.442,0.75-1.037,1.391-1.634,2.018
			c-0.626,0.658-1.257,1.311-1.886,1.966c-0.331,0.345-0.661,0.69-0.991,1.036c-0.324,0.339-0.709,0.664-0.944,1.072
			c-0.146,0.254,0.153,0.582,0.414,0.413c0.397-0.256,0.7-0.652,1.023-0.994c0.367-0.388,0.733-0.778,1.099-1.167
			c0.685-0.73,1.389-1.446,2.049-2.197c0.576-0.655,1.111-1.345,1.465-2.148c0.14-0.318,0.24-0.649,0.313-0.988
			c-0.001,0.036-0.004,0.072,0.021,0.109c0.987,1.488-0.331,2.865-1.258,3.968c-1.121,1.335-2.244,2.669-3.357,4.012
			c-0.282,0.34,0.203,0.833,0.49,0.49c1.3-1.552,2.635-3.088,3.872-4.691c0.238-0.309,0.48-0.68,0.683-1.076
			c0.272,0.444,0.414,0.918,0.277,1.459c-0.191,0.758-0.767,1.374-1.259,1.954c-0.549,0.648-1.102,1.294-1.641,1.951
			c-0.27,0.329-0.541,0.656-0.81,0.986c-0.237,0.292-0.567,0.606-0.654,0.977c-0.047,0.2,0.149,0.318,0.32,0.246
			c0.405-0.172,0.712-0.657,0.996-0.984c0.327-0.377,0.656-0.753,0.981-1.132c0.637-0.742,1.286-1.486,1.885-2.259
			c0.478-0.616,0.885-1.32,0.889-2.123C288.684,205.33,288.453,204.689,287.902,204.402z"/>
		<path style="fill:#EB977D;" d="M312.917,203.419c-0.312-0.386-0.613-0.779-0.913-1.174c-0.589-0.775-1.134-1.577-1.674-2.386
			c-0.522-0.781-1.029-1.576-1.483-2.399c-0.243-0.441-0.499-0.982-0.399-1.502c0.048-0.25,0.188-0.484,0.389-0.638
			c0.186-0.143,0.386-0.133,0.595-0.21c0.127-0.047,0.171-0.227,0.039-0.302c-0.654-0.37-1.312,0.541-1.4,1.1
			c-0.016,0.105-0.016,0.211-0.014,0.317c-0.574,0.092-0.94,1.06-1.04,1.521c-0.1,0.465-0.089,0.93-0.007,1.385
			c-0.451,0.36-0.696,1.036-0.749,1.575c-0.073,0.737,0.18,1.417,0.594,2.017c0.479,0.694,1.052,1.329,1.585,1.981
			c0.304,0.372,0.608,0.744,0.912,1.116c0.314,0.384,0.611,0.824,0.983,1.152c0.133,0.117,0.333-0.029,0.247-0.19
			c-0.372-0.693-0.973-1.316-1.452-1.939c-0.495-0.643-0.998-1.282-1.484-1.932c-0.402-0.536-0.776-1.124-0.776-1.817
			c0-0.309,0.064-0.621,0.185-0.906c0.045-0.105,0.109-0.195,0.17-0.288c0.039,0.105,0.072,0.212,0.117,0.315
			c0.405,0.915,1.021,1.736,1.629,2.525c0.687,0.891,1.428,1.736,2.215,2.54c0.236,0.241,0.612-0.134,0.37-0.37
			c-1.311-1.285-2.588-2.72-3.525-4.306c-0.212-0.358-0.398-0.744-0.525-1.144c0.016-0.026,0.036-0.05,0.051-0.077
			c0.092-0.171-0.009-0.34-0.158-0.395c-0.051-0.282-0.078-0.568-0.044-0.859c0.044-0.374,0.161-0.747,0.364-1.066
			c0.103-0.164,0.256-0.301,0.381-0.453c0.162,0.825,0.736,1.651,1.115,2.315c0.597,1.045,1.258,2.044,1.976,3.009
			c0.336,0.451,0.682,0.895,1.043,1.326c0.334,0.399,0.724,1.044,1.199,1.265c0.094,0.044,0.227-0.03,0.189-0.146
			C313.502,204.003,313.161,203.72,312.917,203.419z"/>
		<path style="fill:#EB977D;" d="M316.007,201.25c-0.156-0.346-0.307-0.695-0.468-1.039c-0.321-0.686-0.661-1.364-0.992-2.045
			c-0.339-0.695-0.716-1.384-1.004-2.102c-0.263-0.656-0.397-1.402-0.008-2.036c0.135-0.22-0.197-0.404-0.341-0.199
			c-0.895,1.268,0.086,2.813,0.64,4.003c0.366,0.786,0.733,1.571,1.101,2.356c0.184,0.392,0.381,0.777,0.575,1.164
			c0.176,0.349,0.313,0.742,0.562,1.043c0.139,0.168,0.372-0.018,0.337-0.196C316.341,201.867,316.146,201.561,316.007,201.25z"/>
		<path style="fill:#EB977D;" d="M320.15,197.129c0.086-0.094,0.035-0.296-0.116-0.279c-0.465,0.051-0.756,0.462-0.917,0.867
			c-0.224,0.561-0.194,1.195-0.186,1.788c0.016,1.132,0.064,2.418,0.702,3.395c0.071,0.109,0.191,0.159,0.318,0.129
			c0.051-0.012,0.087-0.036,0.124-0.073c0.065-0.064,0.109-0.184,0.072-0.274c-0.383-0.936-0.595-1.866-0.652-2.875
			c-0.028-0.501-0.077-1.031-0.004-1.53C319.565,197.775,319.822,197.489,320.15,197.129z"/>
		<path style="fill:#222859;" d="M258.707,239.903c-0.752-0.251-1.531-0.388-2.274-0.676c-0.732-0.284-1.446-0.647-2.098-1.085
			c-1.345-0.904-2.516-2.089-3.429-3.426c-1.991-2.915-2.638-6.513-2.575-9.988c0.007-0.416-0.433-0.6-0.77-0.442
			c-1.012,0.474-2.066,0.856-3.083,1.321c-0.942,0.43-1.971,0.836-2.778,1.497c-0.127,0.104,0.013,0.285,0.149,0.256
			c1.04-0.22,2.035-0.742,3.029-1.113c0.797-0.298,1.606-0.589,2.425-0.83c-0.024,3.53,0.994,7.081,3.073,9.954
			c0.977,1.35,2.179,2.518,3.563,3.448c1.04,0.698,2.281,1.419,3.556,1.75c0.012,0.078,0.044,0.148,0.087,0.212
			c-0.947,1.982-2.395,3.741-4.336,4.811c-1.145,0.631-2.432,1.016-3.74,1.079c-0.665,0.032-1.332,0.01-1.989-0.105
			c-0.582-0.102-1.143-0.361-1.73-0.414c-0.07-0.006-0.095,0.086-0.054,0.131c0.464,0.513,1.281,0.749,1.931,0.919
			c0.771,0.202,1.567,0.284,2.363,0.245c1.591-0.078,3.128-0.571,4.469-1.431c1.267-0.812,2.36-1.903,3.196-3.152
			c0.408-0.609,0.792-1.272,1.057-1.958c0.026-0.068,0.043-0.136,0.055-0.203C259.096,240.543,259.076,240.026,258.707,239.903z"/>
		<path style="fill:#222859;" d="M333.978,218.217c-0.086-0.189-0.332-0.133-0.431,0c-0.348,0.468-0.415,1.139-0.591,1.684
			c-0.201,0.626-0.464,1.221-0.793,1.79c-0.647,1.118-1.516,2.096-2.562,2.857c-1.113,0.81-2.39,1.41-3.711,1.788
			c-0.639,0.183-1.296,0.315-1.952,0.423c-0.711,0.117-1.45,0.11-2.153,0.262c-0.223,0.048-0.207,0.378,0,0.435
			c1.411,0.388,3.155,0.075,4.537-0.303c1.461-0.4,2.827-1.055,4.022-1.989c1.095-0.856,2.052-1.935,2.737-3.147
			C333.638,221.031,334.496,219.352,333.978,218.217z"/>
		<path style="fill:#222859;" d="M302.887,233.855c-0.057-1.413-0.12-2.825-0.17-4.238c-0.102-2.868-0.204-5.737-0.309-8.605
			c-0.208-5.652-0.413-11.305-0.697-16.953c-0.082-1.627-0.172-3.254-0.259-4.88c-0.041-0.768-0.081-1.535-0.14-2.302
			c-0.059-0.776-0.045-1.594-0.329-2.326c-0.057-0.146-0.269-0.167-0.319,0c-0.176,0.597-0.146,1.201-0.141,1.819
			c0.006,0.766,0.017,1.53,0.041,2.295c0.043,1.413,0.087,2.825,0.131,4.238c0.088,2.869,0.216,5.737,0.329,8.605
			c0.227,5.738,0.519,11.474,0.798,17.21c0.079,1.626,0.147,3.253,0.218,4.88c0.068,1.558,0.03,3.174,0.281,4.715
			c0.066,0.404,0.645,0.268,0.673-0.091C303.107,236.784,302.945,235.295,302.887,233.855z"/>
		<path style="fill:#222859;" d="M274.679,133.445c-0.853-0.036-1.715,0.095-2.502,0.427c-0.733,0.309-1.333,0.788-1.799,1.434
			c-0.213,0.296-0.358,0.653-0.435,1.009c-0.121,0.563,0.138,1.27,0.84,1.136c0.372-0.071,0.528-0.414,0.714-0.696
			c0.011-0.016,0.065-0.088,0.067-0.092c0.023-0.027,0.047-0.055,0.07-0.082c0.078-0.094,0.154-0.187,0.239-0.274
			c0.048-0.048,0.097-0.096,0.148-0.141c0.01-0.009,0.073-0.06,0.103-0.086c0.026-0.018,0.058-0.041,0.064-0.045
			c0.056-0.038,0.113-0.077,0.171-0.113c0.104-0.066,0.212-0.125,0.323-0.179c0.026-0.013,0.05-0.023,0.069-0.031
			c0.065-0.024,0.129-0.048,0.195-0.069c0.14-0.045,0.283-0.082,0.427-0.112c0.064-0.013,0.129-0.024,0.193-0.035
			c-0.169,0.031,0.043-0.004,0.077-0.007c0.311-0.028,0.625-0.029,0.937-0.008c0.066,0.004,0.132,0.01,0.198,0.016
			c-0.004-0.001,0.113,0.013,0.162,0.018c0.045,0.007,0.113,0.018,0.127,0.021c0.049,0.009,0.098,0.019,0.146,0.031
			c0.045,0.011,0.088,0.026,0.131,0.039c0.01,0.006,0.006,0.006,0.03,0.018c0.22,0.113,0.443,0.165,0.69,0.176
			c0.48,0.023,0.99-0.454,0.947-0.947C276.906,133.64,275.658,133.487,274.679,133.445z"/>
		<path style="fill:#222859;" d="M293.406,131.477c-0.648-0.337-1.359-0.533-2.091-0.55c-1.341-0.032-2.946,0.632-3.458,1.954
			c-0.201,0.52,0.443,0.84,0.848,0.652c0.209-0.097,0.413-0.211,0.615-0.321c0.087-0.048,0.267-0.135,0.302-0.15
			c-0.005,0.002,0.169-0.072,0.221-0.093c0.016-0.007,0.014-0.006,0.021-0.009c0.007-0.002,0.007-0.002,0.026-0.009
			c0.223-0.081,0.449-0.143,0.682-0.185c0.011-0.002,0.007-0.002,0.013-0.003c0.007,0,0.003,0,0.015-0.001
			c0.059-0.005,0.117-0.009,0.176-0.013c0.134-0.008,0.267-0.01,0.401-0.003c0.054,0.003,0.107,0.007,0.161,0.012
			c0.015,0.002,0.027,0.003,0.047,0.007c0.119,0.023,0.237,0.049,0.354,0.082c0.109,0.031,0.217,0.068,0.323,0.109
			c0.014,0.006,0.026,0.011,0.045,0.02c0.054,0.027,0.109,0.054,0.162,0.083c0.099,0.053,0.193,0.113,0.287,0.174
			c0.022,0.015,0.054,0.038,0.076,0.057c0.046,0.04,0.09,0.08,0.134,0.122c0.088,0.084,0.171,0.172,0.254,0.26
			c0.037,0.04,0.073,0.081,0.109,0.122c0.004,0.012,0.004,0.017,0.022,0.052c0.195,0.379,0.733,0.595,1.138,0.463
			c0.448-0.145,0.703-0.51,0.74-0.972C295.099,132.488,294.066,131.82,293.406,131.477z"/>
		<path style="fill:#222859;" d="M277.193,142.336c-0.15-1.292-0.815-2.549-1.902-2.695c-0.569-0.076-1.082,0.142-1.504,0.516
			c-0.631,0.558-0.842,1.477-0.836,2.286c0.006,0.833,0.156,1.738,0.746,2.366c0.339,0.361,0.795,0.574,1.279,0.639
			c0.585,0.079,1.144-0.121,1.572-0.526C277.111,144.388,277.311,143.352,277.193,142.336z"/>
		<path style="fill:#222859;" d="M293.698,140.089c-0.15-1.292-0.815-2.549-1.902-2.695c-0.569-0.076-1.082,0.142-1.504,0.516
			c-0.631,0.558-0.842,1.477-0.836,2.286c0.006,0.833,0.156,1.738,0.746,2.366c0.339,0.361,0.795,0.574,1.279,0.639
			c0.585,0.079,1.144-0.121,1.572-0.526C293.616,142.142,293.816,141.105,293.698,140.089z"/>
		<path style="fill:#EB977D;" d="M285.21,145.04c-0.203,0.1-0.361,0.268-0.533,0.411c-0.008,0.007-0.065,0.053-0.073,0.06
			c-0.029,0.022-0.059,0.044-0.089,0.066c-0.074,0.053-0.149,0.102-0.225,0.152c-0.16,0.107-0.316,0.216-0.486,0.306
			c-0.049,0.026-0.099,0.051-0.15,0.075c-0.009,0.004-0.027,0.011-0.04,0.016c-0.087,0.033-0.175,0.062-0.264,0.086
			c-0.077,0.02-0.155,0.037-0.234,0.049c-0.001,0,0,0-0.001,0c-0.005,0-0.003-0.001-0.017,0c-0.05,0.003-0.1,0.007-0.15,0.009
			c-0.08,0.002-0.159-0.002-0.239-0.006c-0.014-0.001-0.033-0.003-0.044-0.004c-0.043-0.007-0.085-0.016-0.128-0.024
			c-0.163-0.032-0.322-0.064-0.478-0.124c-0.107-0.042-0.292-0.09-0.425-0.16c-0.218-0.114-0.533,0.078-0.443,0.341
			c0.067,0.196,0.156,0.417,0.301,0.57c0.15,0.157,0.36,0.29,0.556,0.383c0.417,0.197,0.923,0.249,1.378,0.196
			c0.506-0.058,0.988-0.221,1.432-0.472c0.236-0.133,0.45-0.314,0.653-0.491c0.201-0.175,0.416-0.359,0.537-0.601
			C286.329,145.319,285.768,144.766,285.21,145.04z"/>
		<path style="fill:#222859;" d="M276.813,152.033c0.852-1.443,13.344-2.508,14.438-1.937c1.093,0.571-0.563,6.902-6.165,7.497
			C279.476,158.188,276.049,153.327,276.813,152.033z"/>
		<path style="fill:#ED6C6B;" d="M290.081,154.729c-1.088-0.597-2.371-0.925-3.609-0.979c-2.507-0.108-5.139,0.795-6.842,2.571
			c1.406,0.897,3.261,1.504,5.456,1.271C287.399,157.347,289.029,156.121,290.081,154.729z"/>
		<path style="fill:#FFFFFF;" d="M291.251,150.096c-1.093-0.571-13.585,0.494-14.438,1.937c-0.107,0.181-0.124,0.436-0.072,0.732
			c1.075,0.478,2.432,0.354,3.646,0.177c3.027-0.442,6.055-0.883,9.082-1.325c0.684-0.1,1.399-0.221,2.081-0.412
			C291.591,150.64,291.493,150.222,291.251,150.096z"/>
		<path style="fill:#FFFFFF;" d="M276.097,139.16c-1.335,0-1.337,2.074,0,2.074C277.432,141.234,277.434,139.16,276.097,139.16z"/>
		<path style="fill:#FFFFFF;" d="M292.775,137c-1.335,0-1.337,2.074,0,2.074C294.11,139.074,294.112,137,292.775,137z"/>
		<g>
			<path style="fill:#697BAE;" d="M302.422,301.805c0.01-0.004,0.02-0.006,0.03-0.009
				C302.452,301.795,302.446,301.797,302.422,301.805z"/>
			<path style="fill:#697BAE;" d="M303.613,317.159c-0.332-2.433-0.643-4.868-0.964-7.302c-0.262-1.983-0.315-4.196-0.846-6.162
				c0.175-0.043,0.35-0.085,0.518-0.148c0.297-0.112,0.596-0.265,0.84-0.472c0.256-0.217,0.436-0.46,0.48-0.799
				c-0.027,0.1-0.054,0.201-0.081,0.301c0.029-0.059,0.062-0.114,0.096-0.171c0.228-0.383-0.149-0.86-0.573-0.746
				c-0.132,0.035,0.023,0.016,0.077,0.03c-0.113-0.03-0.232-0.023-0.345,0c-0.088,0.018-0.175,0.05-0.262,0.075
				c-0.034,0.01-0.068,0.02-0.102,0.03c-0.004,0.007-0.351,0.144-0.25,0.103c0.074-0.03-0.059,0.021-0.072,0.026
				c-0.044,0.016-0.089,0.031-0.133,0.047c-0.018,0.007-0.129,0.052-0.18,0.073c-0.021,0.008-0.075,0.029-0.084,0.033
				c-0.089,0.034-0.178,0.065-0.269,0.093c-0.192,0.06-0.388,0.109-0.586,0.144c-0.036,0.006-0.072,0.012-0.108,0.018
				c-0.01,0.001-0.016,0.002-0.039,0.004c-0.095,0.008-0.189,0.014-0.284,0.02c-0.184,0.011-0.366,0.034-0.551,0.032
				c-0.052,0-0.242-0.022-0.098,0.002c-0.103-0.018-0.203-0.047-0.306-0.061c0.022,0.003-0.087-0.014-0.12-0.018
				c-0.014-0.003-0.027-0.006-0.031-0.007c-0.009-0.002-0.103-0.027-0.052-0.014c0.058,0.015-0.061-0.045-0.006-0.001
				c-0.353-0.286-0.805-0.016-0.735,0.428c0.143,0.921,1.237,1.163,2.061,1.149c-0.058,1.81,0.333,3.719,0.531,5.489
				c0.243,2.171,0.512,4.337,0.793,6.503c0.527,4.068,1.091,8.132,1.694,12.19c1.247,8.397,2.689,16.76,4.318,25.091
				c0.935,4.783,1.938,9.548,3.054,14.291c0.182,0.773,1.33,0.441,1.181-0.325C308.954,350.518,305.898,333.907,303.613,317.159z"/>
		</g>
		<path style="fill:#697BAE;" d="M268.328,284.108c-0.401,0.428-0.671,0.968-1.006,1.448c-0.308,0.441-0.639,0.863-0.992,1.27
			c-0.724,0.835-1.53,1.582-2.379,2.286c-0.832,0.69-1.741,1.289-2.69,1.804c-0.481,0.261-0.956,0.576-1.455,0.797
			c-0.186,0.083-0.384,0.142-0.566,0.19c-0.123,0.033-0.246,0.038-0.293,0.181c-0.135,0.416,0.422,0.757,0.769,0.796
			c0.552,0.061,1.239-0.211,1.741-0.415c1.159-0.47,2.266-1.105,3.287-1.824c1.024-0.721,1.962-1.562,2.805-2.489
			c0.431-0.474,0.833-0.974,1.217-1.487c0.393-0.527,0.82-1.074,1.026-1.705C270.063,284.129,268.917,283.479,268.328,284.108z"/>
		<path style="fill:#697BAE;" d="M326.459,286.506c-0.934-0.594-2.155-0.577-3.206-0.841c-1.07-0.269-2.084-0.692-3.044-1.234
			c-0.968-0.547-1.826-1.227-2.625-1.997c-0.387-0.373-0.754-0.771-1.081-1.197c-0.356-0.463-0.648-0.932-1.138-1.268
			c-0.261-0.179-0.601,0.061-0.606,0.348c-0.022,1.184,1.009,2.358,1.734,3.209c0.801,0.939,1.81,1.729,2.861,2.37
			c1.06,0.647,2.238,1.129,3.442,1.432c1.137,0.286,2.638,0.591,3.664-0.154C326.694,287.003,326.72,286.672,326.459,286.506z"/>
		<path style="fill:#697BAE;" d="M285.64,391.144c-0.72-2.384-2.041-4.712-3.059-6.987c-1.129-2.521-2.239-5.05-3.305-7.599
			c-1.025-2.451-2.009-4.919-2.988-7.389c-0.49-1.234-0.937-2.49-1.452-3.714c-0.308-0.732-0.443-1.557-1.241-1.817
			c-0.048-0.016-0.102,0.011-0.127,0.052c-0.49,0.788,0.087,1.749,0.363,2.557c0.43,1.254,0.91,2.494,1.379,3.734
			c0.938,2.483,1.934,4.945,2.951,7.398c0.976,2.355,1.979,4.699,3.011,7.03c1.042,2.355,2.023,5.025,3.467,7.159
			C284.972,392.058,285.829,391.768,285.64,391.144z"/>
		<path style="fill:#697BAE;" d="M273.198,401.312c-1.922-2.877-3.899-5.719-5.897-8.544c-1.952-2.759-3.927-5.502-5.967-8.197
			c-0.904-1.194-1.834-2.364-2.778-3.526c-0.233,0.279-0.458,0.549-0.679,0.814c0.816,1.196,1.631,2.392,2.462,3.578
			c1.936,2.762,3.878,5.521,5.778,8.307c1.901,2.788,3.762,5.603,5.609,8.427c0.164,0.252,0.327,0.507,0.489,0.762
			c0.431-0.338,0.879-0.689,1.357-1.067C273.448,401.682,273.322,401.497,273.198,401.312z"/>
		<path style="fill:#697BAE;" d="M318.9,404.628c-3.093,1.013-6.171,2.067-9.293,2.992c-3.472,1.029-6.958,2.005-10.477,2.864
			c-1.844,0.45-3.717,0.835-5.579,1.259c0.165,0.362,0.323,0.709,0.473,1.039c1.581-0.288,3.151-0.635,4.702-0.976
			c3.615-0.795,7.22-1.673,10.775-2.707c3.243-0.943,6.441-2.016,9.65-3.065C319.072,405.584,318.987,405.114,318.9,404.628z"/>
	</g>
</g>
<g id="TEXT">
	
		<text transform="matrix(0.0455 0.999 -0.999 0.0455 174.7514 256.8543)" style="fill:#FFFFFF; font-family:'Montserrat-Bold'; font-size:36.1666px;">A - Z</text>
</g>
</svg>
